#!OML:ASF E:\Steps\Project 1\Capture day 1\Session 2\Subject.ASF
:FULLY-SPECIFIED
:DEGREES
293
root -1.61272 16.237 21.2599 -155.936 0.617462 180.587
lowerback -26.7162 -2.38004 -7.1947
upperback 0.601459 -0.614372 0.461322
thorax 15.1052 -0.704092 4.26093
lowerneck -2.00682 -5.3034 -1.0255
upperneck 15.1351 -7.1013 5.36354
head 5.10649 -2.89615 1.49586
rclavicle -1.68967e-015 -1.15295e-014
rhumerus -39.4455 -15.5956 -77.8623
rradius 36.4328
rwrist -3.60487
rhand -7.13878 -54.3725
rfingers 7.12502
rthumb -161.263 -263.49
lclavicle -1.68967e-015 -1.15295e-014
lhumerus -29.4878 4.44117 81.4463
lradius 23.9513
lwrist -3.81035
lhand -22.0923 -13.34
lfingers 7.12502
lthumb 4.31961 16.5959
rfemur -31.2259 7.47956 19.6877
rtibia 24.5182
rfoot -22.0203 -4.09109
rtoes -30.9726
lfemur -24.9572 -8.17947 -21.4387
ltibia 13.9561
lfoot -11.2918 1.43107
ltoes -20.2616
294
root -1.62097 16.2355 21.265 -156.164 0.799403 180.632
lowerback -26.1784 -2.36646 -7.18022
upperback 0.489483 -0.643648 0.406196
thorax 14.7124 -0.698042 4.18586
lowerneck -2.14146 -5.28041 -0.905115
upperneck 15.4995 -7.06792 5.34071
head 5.236 -2.85112 1.46646
rclavicle 2.48481e-015 1.19271e-014
rhumerus -39.6173 -15.4267 -77.8831
rradius 36.4894
rwrist -3.6217
rhand -8.63139 -53.0078
rfingers 7.12502
rthumb -162.699 -262.258
lclavicle 2.48481e-015 1.19271e-014
lhumerus -29.8578 4.32452 81.2761
lradius 24.0146
lwrist -3.72559
lhand -22.1454 -13.1412
lfingers 7.12502
lthumb 4.26833 16.7958
rfemur -32.2192 7.17954 19.8196
rtibia 26.7209
rfoot -21.8743 -3.81036
rtoes -30.1901
lfemur -24.7891 -8.04726 -21.4953
ltibia 14.1541
lfoot -11.393 1.41435
ltoes -19.1894
295
root -1.61826 16.2334 21.267 -156.223 1.19766 180.582
lowerback -26.416 -2.39925 -7.43598
upperback 0.721273 -0.581845 0.326885
thorax 15.0914 -0.712753 4.25968
lowerneck -2.04485 -5.22372 -0.87234
upperneck 15.0677 -7.03045 5.55523
head 5.09116 -2.84318 1.53355
rclavicle -8.94531e-016 5.08889e-014
rhumerus -39.2448 -15.5504 -78.1111
rradius 36.4324
rwrist -4.06459
rhand -7.79319 -55.5188
rfingers 7.12502
rthumb -161.892 -264.696
lclavicle -8.94531e-016 5.08889e-014
lhumerus -29.6906 4.09374 81.144
lradius 24.0924
lwrist -3.30275
lhand -22.2737 -13.1312
lfingers 7.12502
lthumb 4.14444 16.8083
rfemur -33.6737 7.11072 19.7834
rtibia 29.3342
rfoot -21.794 -3.77582
rtoes -30.1653
lfemur -24.7559 -7.85405 -21.5966
ltibia 14.2136
lfoot -11.4726 1.51523
ltoes -18.0541
296
root -1.61001 16.2309 21.2642 -156.205 1.66877 180.482
lowerback -26.3829 -2.49196 -7.89461
upperback 0.677351 -0.556837 0.320422
thorax 15.0222 -0.72904 4.51262
lowerneck -1.92105 -5.12942 -0.926577
upperneck 14.9717 -6.89968 5.58513
head 5.03863 -2.78683 1.5623
rclavicle 7.45443e-015 -1.35174e-014
rhumerus -39.3051 -15.637 -78.0595
rradius 36.6065
rwrist -3.69074
rhand -6.73962 -58.0459
rfingers 7.12502
rthumb -160.879 -267.126
lclavicle 7.45443e-015 -1.35174e-014
lhumerus -30.0009 4.13082 80.9469
lradius 24.1814
lwrist -3.02974
lhand -22.4109 -13.5378
lfingers 7.12502
lthumb 4.01198 16.4041
rfemur -35.3068 7.23508 19.6546
rtibia 32.1221
rfoot -21.7719 -3.98014
rtoes -31.5814
lfemur -24.8048 -7.55083 -21.7338
ltibia 14.2545
lfoot -11.6334 1.51803
ltoes -16.8815
297
root -1.63513 16.2261 21.2698 -156.435 1.67924 180.62
lowerback -26.0877 -2.43096 -7.53852
upperback 0.757076 -0.618824 0.25297
thorax 14.9744 -0.73538 4.22328
lowerneck -2.05831 -5.09377 -0.862007
upperneck 15.032 -6.8651 5.59678
head 5.07758 -2.76257 1.55347
rclavicle 8.94531e-015 1.66979e-014
rhumerus -39.2431 -15.7182 -78.0848
rradius 36.7122
rwrist -3.57416
rhand -6.98502 -57.5695
rfingers 7.12502
rthumb -161.115 -266.673
lclavicle 8.94531e-015 1.66979e-014
lhumerus -30.0386 4.37542 80.6836
lradius 24.0467
lwrist -3.20942
lhand -22.045 -13.881
lfingers 7.12502
lthumb 4.36534 16.054
rfemur -36.3783 6.46576 20.0523
rtibia 34.6127
rfoot -21.4701 -3.39505
rtoes -31.9237
lfemur -24.534 -7.49593 -21.8072
ltibia 14.3178
lfoot -11.6885 1.384
ltoes -15.6239
298
root -1.63034 16.2254 21.2637 -156.589 2.27911 180.373
lowerback -26.1232 -2.47685 -8.0784
upperback 0.857219 -0.492273 0.158753
thorax 15.0924 -0.724516 4.4617
lowerneck -1.92376 -5.14744 -0.840918
upperneck 14.6929 -6.9566 5.6967
head 4.95621 -2.82103 1.58043
rclavicle -3.97569e-015 2.3059e-014
rhumerus -39.227 -15.7723 -78.0337
rradius 36.7058
rwrist -3.72478
rhand -8.59088 -52.9113
rfingers 7.12502
rthumb -162.66 -262.158
lclavicle -3.97569e-015 2.3059e-014
lhumerus -30.1269 4.52552 80.5047
lradius 23.9427
lwrist -3.38324
lhand -21.9075 -13.9285
lfingers 7.12502
lthumb 4.49814 16.0038
rfemur -37.8387 6.10668 19.9349
rtibia 37.3768
rfoot -21.1129 -3.19351
rtoes -33.6049
lfemur -24.224 -7.08869 -22.2758
ltibia 14.1854
lfoot -11.7133 1.5062
ltoes -16.0297
299
root -1.63717 16.2236 21.2651 -156.811 2.60318 180.416
lowerback -26.055 -2.53564 -8.13077
upperback 1.00998 -0.570512 0.155268
thorax 15.2483 -0.781347 4.45732
lowerneck -1.60416 -5.14623 -0.927025
upperneck 14.0156 -6.97762 5.90295
head 4.70481 -2.86536 1.66754
rclavicle 1.07344e-014 2.54444e-014
rhumerus -39.0348 -15.525 -78.2517
rradius 36.8947
rwrist -4.29898
rhand -7.97859 -55.1672
rfingers 7.12502
rthumb -162.071 -264.361
lclavicle 1.07344e-014 2.54444e-014
lhumerus -30.195 4.55436 80.377
lradius 23.9133
lwrist -3.23398
lhand -22.2832 -13.6674
lfingers 7.12502
lthumb 4.13526 16.2722
rfemur -39.3078 5.55981 20.2634
rtibia 40.2449
rfoot -20.9599 -3.39568
rtoes -38.0718
lfemur -23.9196 -6.89134 -22.3708
ltibia 14.1263
lfoot -11.8314 1.66227
ltoes -16.8891
300
root -1.6518 16.2134 21.2637 -156.908 2.83378 180.543
lowerback -25.9967 -2.54836 -7.92471
upperback 1.06449 -0.65961 0.131352
thorax 15.2937 -0.81077 4.28532
lowerneck -1.73615 -5.06777 -1.00683
upperneck 14.1547 -6.87406 5.88126
head 4.76775 -2.81443 1.67486
rclavicle 6.55989e-015 -2.22639e-014
rhumerus -38.9622 -15.5976 -78.2597
rradius 36.9587
rwrist -4.05397
rhand -8.97023 -52.7896
rfingers 7.12502
rthumb -163.025 -262.068
lclavicle 6.55989e-015 -2.22639e-014
lhumerus -30.3262 4.6142 80.1808
lradius 23.7976
lwrist -3.14114
lhand -22.4376 -13.4228
lfingers 7.12502
lthumb 3.98617 16.5197
rfemur -40.9124 5.01774 20.6522
rtibia 43.1461
rfoot -20.9663 -3.36275
rtoes -42.1397
lfemur -23.7803 -6.85337 -22.3407
ltibia 14.1146
lfoot -11.9651 1.86227
ltoes -16.559
301
root -1.66822 16.2051 21.266 -157.16 2.94601 180.539
lowerback -25.6492 -2.56799 -7.80126
upperback 1.11427 -0.75782 0.0733088
thorax 15.189 -0.845327 4.12091
lowerneck -2.44016 -4.79222 -1.22611
upperneck 15.1208 -6.48434 5.69538
head 5.17082 -2.59511 1.65364
rclavicle -7.15625e-015 -7.15625e-015
rhumerus -38.9064 -15.6951 -78.2707
rradius 37.0334
rwrist -4.37712
rhand -7.61237 -56.5519
rfingers 7.12502
rthumb -161.718 -265.713
lclavicle -7.15625e-015 -7.15625e-015
lhumerus -30.4142 4.80526 79.9834
lradius 23.6217
lwrist -3.26843
lhand -22.2113 -13.1407
lfingers 7.12502
lthumb 4.20472 16.7975
rfemur -42.351 4.32849 20.944
rtibia 45.983
rfoot -21.2139 -2.67462
rtoes -44.3195
lfemur -23.4938 -6.78091 -22.5229
ltibia 14.1641
lfoot -12.0222 1.91621
ltoes -16.4034
302
root -1.66422 16.1994 21.264 -157.363 3.31552 180.377
lowerback -25.5328 -2.65468 -8.15322
upperback 1.19974 -0.768396 0.0163736
thorax 15.2334 -0.881486 4.24765
lowerneck -2.12686 -4.83711 -1.0834
upperneck 14.602 -6.55562 5.70512
head 4.95597 -2.65209 1.63815
rclavicle 7.95139e-016 8.74653e-015
rhumerus -38.97 -15.7292 -78.2559
rradius 37.3224
rwrist -4.14774
rhand -7.97776 -55.2437
rfingers 7.12502
rthumb -162.07 -264.437
lclavicle 7.95139e-016 8.74653e-015
lhumerus -30.419 5.01092 79.7835
lradius 23.3871
lwrist -3.37636
lhand -22.361 -13.6091
lfingers 7.12502
lthumb 4.06014 16.332
rfemur -44.0286 3.99714 21.0099
rtibia 48.8622
rfoot -21.5759 -1.92187
rtoes -44.2004
lfemur -23.3199 -6.44838 -22.8102
ltibia 14.2949
lfoot -12.0451 1.99964
ltoes -18.0809
303
root -1.67075 16.1956 21.2685 -157.569 3.45237 180.441
lowerback -25.1559 -2.66953 -8.09208
upperback 0.801448 -0.839867 -0.124569
thorax 15.303 -0.917765 4.22018
lowerneck -1.85873 -4.78215 -1.05398
upperneck 14.5436 -6.47289 5.75953
head 4.8903 -2.60857 1.66156
rclavicle -6.55989e-015 -4.77083e-015
rhumerus -39.3483 -15.3795 -78.4732
rradius 37.809
rwrist -4.79125
rhand -7.64156 -57.097
rfingers 7.12502
rthumb -161.746 -266.261
lclavicle -6.55989e-015 -4.77083e-015
lhumerus -30.6349 5.00753 79.5309
lradius 23.1694
lwrist -3.39378
lhand -22.4416 -13.9404
lfingers 7.12502
lthumb 3.98231 16.0022
rfemur -45.6485 3.38886 21.5048
rtibia 51.7601
rfoot -22.2966 -0.965468
rtoes -44.469
lfemur -23.1885 -6.24903 -22.8316
ltibia 14.4614
lfoot -12.054 1.91487
ltoes -18.7683
304
root -1.67067 16.1936 21.2533 -157.98 3.76979 180.606
lowerback -25.0018 -2.58568 -8.01251
upperback 0.951016 -0.770404 -0.173475
thorax 15.3834 -0.892064 4.14115
lowerneck -1.83826 -4.73925 -0.956724
upperneck 14.6623 -6.40545 5.66695
head 4.91489 -2.5695 1.62098
rclavicle 6.36111e-015 1.43125e-014
rhumerus -39.3977 -15.5879 -78.5066
rradius 37.9416
rwrist -4.59892
rhand -8.892 -53.8973
rfingers 7.12502
rthumb -162.95 -263.169
lclavicle 6.36111e-015 1.43125e-014
lhumerus -30.6814 4.85435 79.3467
lradius 23.0017
lwrist -3.37838
lhand -22.2155 -13.8088
lfingers 7.12502
lthumb 4.20072 16.1295
rfemur -46.9525 3.17932 22.0018
rtibia 54.5931
rfoot -22.793 -0.202634
rtoes -44.2417
lfemur -22.6363 -6.21038 -22.6645
ltibia 14.3195
lfoot -12.037 2.06199
ltoes -16.7455
305
root -1.68291 16.1943 21.2578 -158.076 3.82812 180.514
lowerback -24.6557 -2.62558 -7.99307
upperback 0.873665 -0.841936 -0.294348
thorax 15.0984 -0.899837 3.96453
lowerneck -1.78662 -4.75706 -0.77793
upperneck 14.7999 -6.41604 5.52463
head 4.93891 -2.56564 1.54844
rclavicle -6.75868e-015 2.8625e-014
rhumerus -39.5236 -15.6715 -78.6383
rradius 38.0098
rwrist -4.89251
rhand -7.55654 -57.1014
rfingers 7.12502
rthumb -161.665 -266.257
lclavicle -6.75868e-015 2.8625e-014
lhumerus -30.7915 4.69362 79.1693
lradius 22.8334
lwrist -3.37084
lhand -22.0778 -13.3254
lfingers 7.12502
lthumb 4.33368 16.6102
rfemur -48.6761 2.56122 22.3117
rtibia 57.3962
rfoot -23.2143 0.382462
rtoes -43.907
lfemur -22.6129 -6.15373 -22.9067
ltibia 14.5184
lfoot -12.3385 1.97347
ltoes -17.8542
306
root -1.69198 16.1977 21.2578 -158.183 3.9694 180.45
lowerback -24.4429 -2.65259 -8.05835
upperback 0.847328 -0.865914 -0.374907
thorax 14.9483 -0.903756 3.90087
lowerneck -1.55969 -4.83676 -0.640222
upperneck 14.7415 -6.5106 5.44732
head 4.87907 -2.61226 1.50316
rclavicle 8.34896e-015 4.77083e-015
rhumerus -39.7233 -15.772 -78.5888
rradius 38.0956
rwrist -4.53178
rhand -7.49069 -55.3859
rfingers 7.12502
rthumb -161.601 -264.536
lclavicle 8.34896e-015 4.77083e-015
lhumerus -30.7691 4.68524 78.9949
lradius 22.6299
lwrist -3.29101
lhand -21.9342 -12.804
lfingers 7.12502
lthumb 4.47234 17.1288
rfemur -50.3994 1.94742 22.6903
rtibia 60.115
rfoot -23.7127 0.577032
rtoes -43.9814
lfemur -22.5383 -6.18164 -23.0772
ltibia 14.6778
lfoot -12.3301 2.12447
ltoes -17.812
307
root -1.68128 16.1958 21.2461 -158.507 4.2421 180.733
lowerback -24.1956 -2.6356 -8.0801
upperback 0.911356 -0.886997 -0.286425
thorax 14.8879 -0.925835 4.00828
lowerneck -1.64247 -4.82451 -0.672041
upperneck 14.9715 -6.48881 5.41392
head 4.96305 -2.59316 1.49637
rclavicle -2.5842e-015 9.54166e-015
rhumerus -39.9534 -15.5288 -78.6373
rradius 38.4047
rwrist -4.70339
rhand -7.63499 -53.9985
rfingers 7.12502
rthumb -161.74 -263.161
lclavicle -2.5842e-015 9.54166e-015
lhumerus -30.7486 5.00896 78.7149
lradius 22.3662
lwrist -3.23608
lhand -21.556 -13.1105
lfingers 7.12502
lthumb 4.83754 16.8142
rfemur -51.8471 1.87998 23.4164
rtibia 62.7816
rfoot -24.2622 0.602355
rtoes -42.8191
lfemur -22.1148 -6.05886 -22.7201
ltibia 14.6708
lfoot -12.7329 2.44903
ltoes -18.807
